<svg xml:space="preserve" style="enable-background:new 0 0 255.975 251.146;" viewBox="0 0 255.975 251.146" height="251.146px" width="255.975px" y="0px" x="0px" xmlns:xlink="http://www.w3.org/1999/xlink" xmlns="http://www.w3.org/2000/svg" id="Layer_1" version="1.1">
<g id="Layer_1_1_">
	<path d="M252.896,115.048c0-42.68-33.093-77.274-73.912-77.274c-0.636,0-1.262,0.03-1.894,0.049
		C164.203,15.18,140.573,0,113.541,0C72.72,0,39.628,34.6,39.628,77.28c0,0.554,0.029,1.1,0.04,1.652
		C17.342,92.227,2.277,117.317,2.277,146.104c0,42.678,33.093,77.27,73.914,77.27c2.321,0,4.615-0.123,6.883-0.342
		c13.558,4.969,35.069,28.115,58.029,28.115c37.732,0,67.832-29.563,72.33-67.734C236.896,170.465,252.896,144.715,252.896,115.048z" style="fill:#E3F0F7;"></path>
	<g style="display:none;" id="Layer_3_4_">
		<g style="display:inline;">
			<g>
				<path d="M83.635,140.439c0-11.564-10.059-20.938-22.467-20.938c-0.194,0-0.385,0.009-0.576,0.015
					c-3.917-6.135-11.102-10.245-19.318-10.245c-12.408,0-22.469,9.372-22.469,20.935c0,0.15,0.009,0.297,0.012,0.447
					c-6.784,3.602-11.364,10.397-11.364,18.197c0,11.562,10.059,20.934,22.468,20.934c0.705,0,1.403-0.033,2.092-0.094
					c4.122,4.649,10.358,7.617,17.335,7.617c11.471,0,20.925-8.011,22.293-18.351C78.772,155.451,83.635,148.477,83.635,140.439z" style="fill:#D7F7E4;"></path>
				<path d="M49.347,178.807c-6.894,0-13.392-2.749-17.95-7.568c-0.499,0.03-0.993,0.045-1.477,0.045
					c-13.216,0-23.968-10.063-23.968-22.434c0-7.768,4.329-14.997,11.357-19.076c0.247-12.171,10.902-22.003,23.964-22.003
					c8.091,0,15.716,3.9,20.112,10.231c13.116,0.11,23.75,10.133,23.75,22.437c0,8.109-4.626,15.514-12.127,19.503
					C71.16,170.752,61.136,178.807,49.347,178.807z M32.633,168.13l0.501,0.565c4.007,4.52,9.917,7.112,16.212,7.112
					c10.575,0,19.52-7.329,20.806-17.047l0.105-0.796l0.72-0.354c6.882-3.384,11.157-9.963,11.157-17.172
					c0-10.718-9.406-19.438-20.967-19.438c-0.128,0-0.255,0.005-0.382,0.009l-1,0.031l-0.458-0.718
					c-3.762-5.892-10.68-9.552-18.054-9.552c-11.562,0-20.969,8.718-20.969,19.435l0.029,1.34l-0.814,0.433
					c-6.518,3.46-10.567,9.925-10.567,16.872c0,10.716,9.406,19.434,20.968,19.434c0.637,0,1.296-0.029,1.96-0.088L32.633,168.13z" style="fill:#CCCCDE;"></path>
			</g>
			<path d="M60.789,118.75c-0.193,0-0.385,0.009-0.575,0.015
				c-3.141-4.919-8.383-8.534-14.573-9.775c4.898,1.229,9.023,4.208,11.559,8.175c0.165-0.004,2.416,3.886,2.583,3.886
				c10.647,0,15.601,5.738,15.601,15.659c0,6.896-2.583,11.291-8.704,14.301c-1.173,8.875-9.287,15.748-19.129,15.748
				c-5.99,0-11.34-2.543-14.877-6.53c-0.591,0.049-1.189,0.075-1.794,0.075c-10.649,0-19.013-5.047-19.013-14.967
				c0-6.682,2.989-9.973,8.432-13.938c-0.146-0.855-0.75-8.42,1.267-10.438c4.792-4.793,6.963-8.909,11.25-11.038
				c-8.414,3.025-14.385,10.627-14.385,19.535c0,0.148,0.009,0.299,0.012,0.447C11.655,133.509,7.076,140.3,7.076,148.1
				c0,11.562,10.059,20.938,22.468,20.938c0.707,0,1.402-0.035,2.093-0.098c4.121,4.647,10.356,7.617,17.336,7.617
				c11.469,0,20.924-8.013,22.291-18.354c7.133-3.506,11.997-10.479,11.997-18.52C83.258,128.123,73.199,118.75,60.789,118.75z" style="opacity:0.1;fill:#6E6E96;enable-background:new    ;"></path>
			<g>
				<path d="M28.811,151.761c0,0,11.635,2.277,11.635,13.662c0,0,3.133,19.343-8.976,33.027h27.96
					c-0.277-0.387-24.422-32.645,2.449-51.816C45.491,156.004,28.811,151.761,28.811,151.761z" style="fill:#EDE3DA;"></path>
				<path d="M59.43,199.951H28.14l2.207-2.494c11.504-13.002,8.648-31.607,8.619-31.793l-0.02-0.24
					c0-9.079-8.399-11.683-10.144-12.124c-0.238-0.053-0.361-0.084-0.361-0.084l0.658-2.926c0,0,0.139,0.026,0.39,0.089
					c0.935,0.203,4.231,0.841,8.802,0.841c5.724,0,14.333-1.021,22.844-5.887l1.616,2.522c-6.631,4.731-10.568,10.71-11.702,17.771
					c-2.415,15.029,8.337,30.228,9.571,31.91l1.75,2.387L59.43,199.951z M34.605,196.951H56.6
					c-3.447-5.394-10.64-18.566-8.514-31.801c0.803-5.002,2.847-9.503,6.101-13.457c-6.069,2.011-11.71,2.526-15.897,2.526
					c-0.464,0-0.915-0.006-1.352-0.018c2.654,2.276,4.973,5.786,5.007,11.104C42.206,167.042,44.376,183.638,34.605,196.951z" style="fill:#CCCCDE;"></path>
			</g>
			<g>
				<path d="M36.178,128.922" style="fill:#D57E58;"></path>
			</g>
			<path d="M54.905,151.73c0,0-17.653,22.793-4.085,46.721h8.611
				C59.43,198.451,41.515,173.414,54.905,151.73z" style="opacity:0.11;fill:#6E6E96;enable-background:new    ;"></path>
		</g>
		<g style="display:inline;">
			<g>
				<path d="M253.475,139.156c0-10.828-9.42-19.604-21.04-19.604c-0.183,0-0.359,0.009-0.539,0.014
					c-3.669-5.744-10.396-9.596-18.091-9.596c-11.62,0-21.041,8.777-21.041,19.604c0,0.141,0.009,0.279,0.012,0.418
					c-6.354,3.375-10.644,9.74-10.644,17.043c0,10.826,9.421,19.605,21.04,19.605c0.66,0,1.312-0.033,1.96-0.091
					c3.858,4.354,9.698,7.136,16.233,7.136c10.737,0,19.596-7.5,20.875-17.187C248.92,153.213,253.475,146.684,253.475,139.156z" style="fill:#D7F7E4;"></path>
				<path d="M221.365,175.185c-6.467,0-12.562-2.573-16.847-7.086c-0.46,0.027-0.904,0.041-1.347,0.041
					c-12.429,0-22.54-9.468-22.54-21.105c0-7.289,4.053-14.077,10.637-17.92c0.262-11.426,10.271-20.646,22.536-20.646
					c7.589,0,14.744,3.651,18.884,9.583c12.312,0.128,22.286,9.545,22.286,21.103c0,7.613-4.335,14.567-11.367,18.327
					C241.852,167.63,232.437,175.185,221.365,175.185z M205.753,164.988l0.502,0.566c3.733,4.214,9.241,6.631,15.11,6.631
					c9.857,0,18.192-6.828,19.388-15.883l0.105-0.796l0.72-0.354c6.413-3.155,10.396-9.285,10.396-15.997
					c0-9.982-8.766-18.104-19.54-18.104c-0.109,0-0.216,0.004-0.322,0.007l-1.024,0.029l-0.456-0.715
					c-3.508-5.492-9.956-8.903-16.827-8.903c-10.775,0-19.541,8.122-19.541,18.104l0.031,1.31l-0.815,0.433
					c-6.074,3.227-9.848,9.25-9.848,15.719c0,9.983,8.766,18.105,19.54,18.105c0.587,0,1.185-0.027,1.827-0.085L205.753,164.988z" style="fill:#CCCCDE;"></path>
			</g>
			<path d="M232.081,118.845c-0.185,0-0.358,0.009-0.539,0.013
				c-2.94-4.606-7.854-7.992-13.646-9.154c4.586,1.15,8.449,3.94,10.822,7.655c0.154-0.004,2.263,3.639,2.419,3.639
				c9.971,0,14.608,5.374,14.608,14.664c0,6.459-2.42,10.574-8.148,13.396c-1.1,8.311-8.698,14.741-17.914,14.741
				c-5.606,0-10.619-2.381-13.934-6.116c-0.558,0.047-1.112,0.071-1.683,0.071c-9.975,0-17.806-4.727-17.806-14.016
				c0-6.258,2.8-9.34,7.896-13.055c-0.139-0.808-0.701-7.887,1.188-9.772c4.485-4.488,6.521-8.343,10.534-10.337
				c-7.879,2.833-13.471,9.952-13.471,18.291c0,0.139,0.006,0.275,0.012,0.418c-6.354,3.373-10.646,9.736-10.646,17.041
				c0,10.824,9.421,19.604,21.041,19.604c0.661,0,1.313-0.032,1.959-0.09c3.859,4.355,9.699,7.136,16.234,7.136
				c10.739,0,19.594-7.5,20.875-17.188c6.68-3.285,11.231-9.812,11.231-17.342C253.122,127.623,243.702,118.845,232.081,118.845z" style="opacity:0.1;fill:#6E6E96;enable-background:new    ;"></path>
			<g>
				<path d="M202.135,149.758c0,0,10.896,2.134,10.896,12.797c0,0,2.934,18.109-8.406,30.929h26.184
					c-0.26-0.359-22.87-30.566,2.294-48.521C217.754,153.732,202.135,149.758,202.135,149.758z" style="fill:#EDE3DA;"></path>
				<path d="M230.809,194.983h-29.513l2.206-2.494c10.718-12.116,8.076-29.521,8.049-29.696l-0.02-0.238
					c0-8.431-7.802-10.853-9.427-11.264c-0.224-0.05-0.34-0.079-0.34-0.079l0.658-2.926c0,0,0.132,0.024,0.368,0.084
					c0.876,0.19,3.956,0.786,8.228,0.786c5.347,0,13.39-0.954,21.34-5.497l1.615,2.523c-6.193,4.419-9.868,10.003-10.923,16.596
					c-2.249,14.062,7.798,28.227,8.951,29.796l1.755,2.388L230.809,194.983z M207.748,191.983h20.233
					c-3.271-5.143-9.863-17.358-7.893-29.679c0.736-4.604,2.59-8.757,5.534-12.417c-5.577,1.803-10.748,2.269-14.604,2.269
					c-0.344,0-0.681-0.004-1.011-0.01c2.418,2.148,4.49,5.411,4.523,10.29C214.78,164.099,216.781,179.527,207.748,191.983z" style="fill:#CCCCDE;"></path>
			</g>
			<g>
				<path d="M209.036,128.373" style="fill:#D57E58;"></path>
			</g>
			<path d="M226.571,149.73c0,0-16.53,21.344-3.823,43.752h8.062
				C230.808,193.482,214.032,170.035,226.571,149.73z" style="opacity:0.11;fill:#6E6E96;enable-background:new    ;"></path>
		</g>
		<g style="display:inline;">
			<g>
				<path d="M216.773,140.916c0-16.621-14.461-30.094-32.299-30.094c-0.278,0-0.554,0.012-0.828,0.019
					c-5.632-8.816-15.959-14.729-27.771-14.729c-17.838,0-32.301,13.475-32.301,30.096c0,0.215,0.014,0.428,0.018,0.646
					c-9.755,5.181-16.339,14.944-16.339,26.155c0,16.621,14.462,30.099,32.3,30.099c1.014,0,2.018-0.049,3.008-0.14
					c5.926,6.689,14.89,10.951,24.921,10.951c16.489,0,30.081-11.514,32.049-26.379
					C209.782,162.498,216.773,152.469,216.773,140.916z" style="fill:#D7F7E4;"></path>
				<path d="M167.482,195.42c-9.84,0-19.102-3.962-25.536-10.896c-0.805,0.057-1.606,0.085-2.393,0.085
					c-18.637,0-33.8-14.175-33.8-31.599c0-11.044,6.23-21.321,16.322-27.034c0.134-17.315,15.245-31.363,33.8-31.363
					c11.535,0,22.398,5.615,28.566,14.71c0.011,0,0.021,0,0.032,0c18.637,0,33.799,14.173,33.799,31.594
					c0,11.516-6.635,22.026-17.37,27.612C198.444,183.914,184.226,195.42,167.482,195.42z M143.18,181.405l0.504,0.569
					c5.881,6.638,14.555,10.445,23.798,10.445c15.53,0,28.67-10.78,30.562-25.076l0.105-0.795l0.72-0.354
					c10.118-4.978,16.404-14.664,16.404-25.279c0-15.767-13.816-28.594-30.799-28.594c-0.182,0-0.362,0.006-0.543,0.011
					l-1.094,0.028l-0.455-0.713c-5.531-8.658-15.688-14.036-26.507-14.036c-16.983,0-30.801,12.828-30.801,28.596
					c0,0.105,0.004,0.211,0.008,0.317l0.025,1.223l-0.812,0.432c-9.587,5.091-15.542,14.605-15.542,24.83
					c0,15.77,13.817,28.599,30.8,28.599c0.939,0,1.906-0.045,2.871-0.134L143.18,181.405z" style="fill:#CCCCDE;"></path>
			</g>
			<path d="M183.931,109.738c-0.276,0-0.552,0.012-0.827,0.019
				c-4.516-7.07-12.051-12.269-20.949-14.052c7.041,1.766,12.972,6.049,16.614,11.751c0.237-0.006,3.475,5.586,3.713,5.586
				c15.309,0,22.43,8.248,22.43,22.511c0,9.914-3.716,16.232-12.514,20.563c-1.687,12.754-13.353,22.635-27.5,22.635
				c-8.609,0-16.302-3.656-21.387-9.395c-0.851,0.069-1.71,0.112-2.58,0.112c-15.31,0-27.332-7.254-27.332-21.516
				c0-9.604,4.298-14.336,12.12-20.039c-0.209-1.234-1.077-12.104,1.82-15.002c6.89-6.89,10.011-12.808,16.174-15.868
				c-12.096,4.35-20.679,15.277-20.679,28.08c0,0.215,0.011,0.428,0.017,0.646c-9.756,5.177-16.34,14.946-16.34,26.155
				c0,16.621,14.461,30.099,32.3,30.099c1.017,0,2.017-0.049,3.008-0.138c5.925,6.689,14.891,10.949,24.922,10.949
				c16.487,0,30.078-11.514,32.046-26.379c10.255-5.043,17.244-15.07,17.244-26.623C216.231,123.211,201.77,109.738,183.931,109.738
				z" style="opacity:0.1;fill:#6E6E96;enable-background:new    ;"></path>
			<g>
				<path d="M137.959,157.193c0,0,16.727,3.271,16.727,19.643c0,0,4.504,27.808-12.903,47.48h40.194
					c-0.397-0.558-35.106-46.922,3.521-74.484C161.939,163.293,137.959,157.193,137.959,157.193z" style="fill:#EDE3DA;"></path>
				<path d="M181.977,225.816h-43.524l2.207-2.494c16.742-18.922,12.59-45.976,12.546-46.246l-0.02-0.24
					c0-13.556-12.513-17.42-15.085-18.07c-0.336-0.073-0.512-0.118-0.512-0.118l0.658-2.926c0,0,0.193,0.037,0.54,0.123
					c1.35,0.295,6.156,1.228,12.81,1.228c8.306,0,20.8-1.482,33.157-8.543l1.615,2.523c-9.675,6.904-15.424,15.638-17.087,25.96
					c-3.517,21.837,12.081,43.926,13.871,46.372l1.746,2.386L181.977,225.816z M144.972,222.816h34.147
					c-4.572-6.933-15.968-26.604-12.799-46.28c1.267-7.861,4.705-14.853,10.255-20.882c-9.523,3.547-18.481,4.418-24.979,4.418
					c-1.403,0-2.726-0.039-3.955-0.104c4.313,3.099,8.505,8.286,8.544,16.749C156.523,178.925,159.875,203.589,144.972,222.816z" style="fill:#CCCCDE;"></path>
			</g>
			<g>
				<path d="M148.552,124.362" style="fill:#D57E58;"></path>
			</g>
			<path d="M175.472,157.148c0,0-25.378,32.766-5.873,67.164h12.378
				C181.977,224.313,156.223,188.32,175.472,157.148z" style="opacity:0.11;fill:#6E6E96;enable-background:new    ;"></path>
		</g>
		<g style="display:inline;">
			<g>
				<path d="M144.936,142.027c0-13.646-11.873-24.707-26.517-24.707c-0.229,0-0.454,0.01-0.68,0.016
					c-4.624-7.238-13.103-12.092-22.801-12.092c-14.644,0-26.518,11.063-26.518,24.706c0,0.178,0.012,0.354,0.015,0.529
					c-8.01,4.252-13.414,12.271-13.414,21.477c0,13.646,11.872,24.707,26.519,24.707c0.832,0,1.654-0.041,2.469-0.104
					c4.864,5.483,12.224,8.983,20.46,8.983c13.537,0,24.695-9.451,26.309-21.651C139.196,159.746,144.936,151.514,144.936,142.027z" style="fill:#D7F7E4;"></path>
				<path d="M104.469,187.042c-8.108,0-15.747-3.248-21.08-8.938c-0.655,0.039-1.265,0.059-1.849,0.059
					c-15.45,0-28.019-11.757-28.019-26.207c0-9.118,5.111-17.604,13.402-22.355c0.2-14.29,12.69-25.856,28.015-25.856
					c9.509,0,18.468,4.606,23.596,12.076c15.395,0.059,27.901,11.793,27.901,26.207c0,9.511-5.454,18.196-14.288,22.849
					C130.05,177.568,118.3,187.042,104.469,187.042z M84.636,175.005l0.495,0.559c4.78,5.388,11.829,8.479,19.338,8.479
					c12.617,0,23.288-8.748,24.821-20.348l0.105-0.795l0.72-0.354c8.216-4.045,13.32-11.907,13.32-20.518
					c0-12.797-11.223-23.207-25.017-23.207c-0.149,0-0.295,0.005-0.441,0.009l-1.046,0.028l-0.456-0.714
					c-4.492-7.031-12.744-11.399-21.537-11.399c-13.795,0-25.018,10.41-25.018,23.206l0.03,1.423l-0.812,0.432
					c-7.783,4.131-12.617,11.853-12.617,20.151c0,12.797,11.223,23.207,25.019,23.207c0.72,0,1.489-0.032,2.352-0.1L84.636,175.005z" style="fill:#CCCCDE;"></path>
			</g>
			<path d="M117.973,116.432c-0.228,0-0.452,0.009-0.679,0.015
				c-3.707-5.805-9.895-10.072-17.199-11.537c5.78,1.45,10.648,4.966,13.641,9.647c0.194-0.006,2.852,4.586,3.049,4.586
				c12.566,0,18.414,6.771,18.414,18.479c0,8.139-3.051,13.326-10.271,16.881c-1.384,10.474-10.961,18.584-22.576,18.584
				c-7.068,0-13.384-3.004-17.559-7.715c-0.698,0.062-1.404,0.096-2.118,0.096c-12.568,0-22.438-5.957-22.438-17.664
				c0-7.885,3.528-11.77,9.949-16.45c-0.171-1.017-0.884-9.938,1.496-12.316c5.655-5.657,8.218-10.515,13.277-13.028
				c-9.931,3.571-16.979,12.542-16.979,23.055c0,0.176,0.011,0.352,0.016,0.526c-8.012,4.25-13.415,12.271-13.415,21.478
				c0,13.645,11.873,24.707,26.518,24.707c0.834,0,1.655-0.041,2.469-0.109c4.864,5.488,12.225,8.988,20.461,8.988
				c13.536,0,24.693-9.451,26.311-21.656c8.418-4.141,14.158-12.371,14.158-21.854C144.491,127.494,132.618,116.432,117.973,116.432
				z" style="opacity:0.1;fill:#6E6E96;enable-background:new    ;"></path>
			<g>
				<path d="M80.232,155.391c0,0,13.731,2.688,13.731,16.129c0,0,3.697,22.821-10.595,38.977h33
					c-0.328-0.455-28.824-38.52,2.89-61.152C99.918,160.398,80.232,155.391,80.232,155.391z" style="fill:#EDE3DA;"></path>
				<path d="M116.368,211.997h-36.33l2.206-2.494c13.636-15.413,10.273-37.522,10.237-37.743l-0.019-0.239
					c0-10.928-10.095-14.05-12.18-14.577c-0.277-0.062-0.421-0.098-0.421-0.098l0.658-2.926c0,0,0.161,0.03,0.45,0.103
					c1.105,0.241,5.024,1,10.454,1c6.787,0,16.996-1.211,27.09-6.98l1.616,2.523c-7.892,5.633-12.577,12.755-13.924,21.168
					c-2.86,17.867,9.888,35.854,11.351,37.847l1.753,2.388L116.368,211.997z M86.53,208.997h26.991
					c-3.932-6.046-12.823-21.843-10.278-37.737c0.989-6.178,3.596-11.705,7.777-16.519c-7.479,2.623-14.467,3.281-19.597,3.281
					c-0.832,0-1.628-0.017-2.388-0.045c3.334,2.627,6.391,6.832,6.427,13.425C95.756,173.339,98.41,193.244,86.53,208.997z" style="fill:#CCCCDE;"></path>
			</g>
			<g>
				<path d="M88.928,128.438" style="fill:#D57E58;"></path>
			</g>
			<path d="M111.028,155.355c0,0-20.835,26.897-4.82,55.141h10.162
				C116.369,210.496,95.225,180.945,111.028,155.355z" style="opacity:0.11;fill:#6E6E96;enable-background:new    ;"></path>
		</g>
		<g style="display:inline;">
			<g>
				<path d="M252.159,166.164c0-12.344-10.74-22.35-23.988-22.35c-0.202,0-0.406,0.008-0.61,0.014
					c-4.187-6.549-11.854-10.938-20.625-10.938c-13.248,0-23.984,10.008-23.984,22.35c0,0.162,0.012,0.318,0.014,0.479
					c-7.244,3.851-12.135,11.105-12.135,19.433c0,12.348,10.735,22.354,23.984,22.354c0.753,0,1.497-0.039,2.229-0.104
					c4.399,4.969,11.062,8.135,18.512,8.135c12.245,0,22.339-8.553,23.799-19.592C246.965,182.191,252.159,174.746,252.159,166.164z" style="fill:#D7F7E4;"></path>
				<path d="M215.556,207.036c-7.355,0-14.281-2.938-19.127-8.084c-0.557,0.035-1.091,0.053-1.614,0.053
					c-14.052,0-25.484-10.7-25.484-23.854c0-8.271,4.622-15.974,12.125-20.311c0.228-12.967,11.57-23.45,25.48-23.45
					c8.62,0,16.746,4.166,21.42,10.925c13.97,0.093,25.304,10.756,25.304,23.849c0,8.631-4.937,16.519-12.936,20.765
					C238.783,198.447,228.112,207.036,215.556,207.036z M197.666,195.841l0.501,0.566c4.293,4.849,10.631,7.629,17.389,7.629
					c11.341,0,20.933-7.862,22.312-18.288l0.105-0.795l0.719-0.354c7.382-3.64,11.968-10.704,11.968-18.435
					c0-11.496-10.088-20.85-22.488-20.85c-0.146,0-0.294,0.005-0.441,0.009l-0.976,0.028l-0.457-0.716
					c-4.04-6.319-11.459-10.245-19.361-10.245c-12.397,0-22.484,9.354-22.484,20.85l0.024,1.374l-0.807,0.429
					c-6.994,3.718-11.339,10.656-11.339,18.108c0,11.499,10.087,20.854,22.484,20.854c0.664,0,1.351-0.032,2.098-0.098
					L197.666,195.841z" style="fill:#CCCCDE;"></path>
			</g>
			<path d="M227.767,143.008c-0.206,0-0.409,0.013-0.614,0.017
				c-3.354-5.25-8.948-9.111-15.558-10.438c5.229,1.313,9.633,4.492,12.339,8.729c0.175-0.004,2.579,4.147,2.757,4.147
				c11.368,0,16.655,6.123,16.655,16.72c0,7.36-2.757,12.055-9.291,15.27c-1.252,9.473-9.915,16.814-20.423,16.814
				c-6.396,0-12.106-2.722-15.884-6.98c-0.631,0.055-1.271,0.086-1.916,0.086c-11.368,0-20.299-5.389-20.299-15.979
				c0-7.136,3.188-10.646,9.002-14.886c-0.156-0.918-0.805-8.985,1.353-11.141c5.116-5.117,7.436-9.514,12.011-11.785
				c-8.979,3.229-15.356,11.346-15.356,20.854c0,0.157,0.013,0.315,0.017,0.479c-7.246,3.846-12.138,11.104-12.138,19.428
				c0,12.345,10.738,22.353,23.988,22.353c0.754,0,1.496-0.035,2.23-0.103c4.401,4.968,11.061,8.134,18.509,8.134
				c12.245,0,22.338-8.554,23.8-19.593c7.614-3.741,12.812-11.19,12.812-19.77C251.754,153.016,241.016,143.008,227.767,143.008z" style="opacity:0.1;fill:#6E6E96;enable-background:new    ;"></path>
			<g>
				<path d="M193.625,178.252c0,0,12.422,2.433,12.422,14.588c0,0,3.345,20.646-9.584,35.261h29.853
					c-0.296-0.41-26.072-34.849,2.615-55.318C211.435,182.783,193.625,178.252,193.625,178.252z" style="fill:#EDE3DA;"></path>
				<path d="M226.316,229.6h-33.183l2.207-2.494c12.288-13.891,9.258-33.828,9.227-34.028l-0.02-0.238
					c0-9.771-9.035-12.571-10.908-13.045c-0.252-0.056-0.384-0.089-0.384-0.089l0.658-2.926c0,0,0.147,0.028,0.412,0.094
					c0.999,0.218,4.531,0.902,9.427,0.902c6.122,0,15.331-1.093,24.435-6.297l1.615,2.523c-7.106,5.071-11.324,11.481-12.537,19.053
					c-2.579,16.109,8.921,32.334,10.241,34.132l1.754,2.388L226.316,229.6z M199.609,226.6h23.868
					c-3.633-5.64-11.454-19.779-9.174-34.019c0.872-5.444,3.125-10.332,6.725-14.61c-6.595,2.235-12.737,2.805-17.275,2.805
					c-0.6,0-1.179-0.01-1.738-0.027c2.909,2.411,5.498,6.182,5.533,11.973C207.82,194.534,210.169,212.37,199.609,226.6z" style="fill:#CCCCDE;"></path>
			</g>
			<g>
				<path d="M201.493,153.871" style="fill:#D57E58;"></path>
			</g>
			<path d="M221.485,178.219c0,0-18.847,24.334-4.36,49.882h9.191
				C226.316,228.1,207.189,201.369,221.485,178.219z" style="opacity:0.11;fill:#6E6E96;enable-background:new    ;"></path>
		</g>
		<g style="display:inline;">
			<g>
				<path d="M87.893,164.313c0-13.111-11.408-23.738-25.479-23.738c-0.221,0-0.437,0.008-0.653,0.014
					c-4.443-6.955-12.589-11.612-21.907-11.612c-14.07,0-25.479,10.629-25.479,23.735c0,0.17,0.011,0.336,0.015,0.506
					C6.694,157.302,1.5,165.011,1.5,173.857c0,13.106,11.407,23.735,25.479,23.735c0.8,0,1.59-0.041,2.372-0.104
					c4.674,5.271,11.745,8.639,19.659,8.639c13.007,0,23.729-9.082,25.279-20.809C82.378,181.336,87.893,173.427,87.893,164.313z" style="fill:#D7F7E4;"></path>
				<path d="M49.01,207.628c-7.795,0-15.142-3.122-20.278-8.592c-0.622,0.038-1.201,0.057-1.753,0.057
					C12.103,199.093,0,187.772,0,173.857c0-8.773,4.911-16.938,12.877-21.518c0.213-13.744,12.232-24.863,26.977-24.863
					c9.147,0,17.765,4.424,22.703,11.599c14.811,0.072,26.836,11.366,26.836,25.238c0,9.149-5.242,17.507-13.734,21.991
					C73.628,198.516,62.319,207.628,49.01,207.628z M29.977,195.934l0.496,0.56c4.584,5.169,11.341,8.134,18.537,8.134
					c12.094,0,22.323-8.386,23.792-19.505l0.105-0.795l0.719-0.354c7.875-3.878,12.766-11.411,12.766-19.66
					c0-12.263-10.757-22.238-23.979-22.238c-0.162,0-0.321,0.005-0.48,0.01l-0.98,0.026l-0.457-0.715
					c-4.303-6.735-12.213-10.92-20.643-10.92c-13.222,0-23.979,9.975-23.979,22.235l0.036,1.396l-0.818,0.435
					C7.634,158.502,3,165.903,3,173.857c0,12.261,10.757,22.235,23.979,22.235c0.684,0,1.421-0.032,2.252-0.099L29.977,195.934z" style="fill:#CCCCDE;"></path>
			</g>
			<path d="M61.986,139.719c-0.219,0-0.435,0.011-0.651,0.017
				c-3.562-5.578-9.506-9.678-16.525-11.086c5.553,1.393,10.231,4.771,13.106,9.27c0.186-0.004,2.738,4.406,2.928,4.406
				c12.076,0,17.692,6.506,17.692,17.758c0,7.82-2.93,12.805-9.87,16.221c-1.33,10.064-10.531,17.855-21.693,17.855
				c-6.792,0-12.859-2.885-16.871-7.412c-0.67,0.057-1.348,0.092-2.035,0.092c-12.075,0-21.561-5.723-21.561-16.975
				c0-7.574,3.391-11.307,9.561-15.807c-0.165-0.976-0.85-9.55,1.438-11.837c5.435-5.434,7.896-10.102,12.758-12.516
				c-9.541,3.43-16.312,12.051-16.312,22.146c0,0.17,0.01,0.338,0.014,0.508c-7.696,4.084-12.889,11.793-12.889,20.639
				c0,13.107,11.406,23.736,25.479,23.736c0.801,0,1.591-0.039,2.373-0.105c4.674,5.273,11.745,8.64,19.659,8.64
				c13.006,0,23.728-9.08,25.277-20.81c8.09-3.979,13.604-11.891,13.604-21.002C87.466,150.345,76.058,139.719,61.986,139.719z" style="opacity:0.1;fill:#6E6E96;enable-background:new    ;"></path>
			<g>
				<path d="M25.723,177.152c0,0,13.193,2.584,13.193,15.496c0,0,3.553,21.932-10.18,37.451h31.707
					c-0.313-0.438-27.693-37.017,2.777-58.761C44.638,181.963,25.723,177.152,25.723,177.152z" style="fill:#EDE3DA;"></path>
				<path d="M60.444,231.599H25.406l2.207-2.494c13.11-14.815,9.857-36.005,9.823-36.217l-0.02-0.24
					c0-10.453-9.661-13.442-11.659-13.948c-0.266-0.059-0.405-0.094-0.405-0.094l0.659-2.926c0,0,0.154,0.029,0.433,0.099
					c1.061,0.231,4.819,0.96,10.029,0.96c6.515,0,16.314-1.163,26.003-6.702l1.616,2.522c-7.562,5.397-12.054,12.22-13.351,20.279
					c-2.752,17.112,9.483,34.423,10.888,36.341l1.748,2.386L60.444,231.599z M31.892,228.599h25.711
					c-3.808-5.89-12.268-21.042-9.824-36.237c0.943-5.865,3.402-11.122,7.337-15.709c-7.116,2.464-13.757,3.086-18.644,3.086
					c-0.734,0-1.439-0.014-2.115-0.038c3.159,2.539,6.022,6.566,6.058,12.829C40.701,194.417,43.23,213.474,31.892,228.599z" style="fill:#CCCCDE;"></path>
			</g>
			<g>
				<path d="M34.078,151.254" style="fill:#D57E58;"></path>
			</g>
			<path d="M55.313,177.117c0,0-20.02,25.848-4.633,52.982h9.764
				C60.444,230.1,40.129,201.707,55.313,177.117z" style="opacity:0.11;fill:#6E6E96;enable-background:new    ;"></path>
		</g>
	</g>
	<g style="display:none;" id="Layer_3_3_">
		<g style="display:inline;">
			<g>
				<path d="M84.635,140.439c0-11.564-10.059-20.938-22.467-20.938c-0.194,0-0.385,0.009-0.576,0.015
					c-3.917-6.135-11.102-10.245-19.318-10.245c-12.408,0-22.469,9.372-22.469,20.935c0,0.15,0.009,0.297,0.012,0.447
					c-6.784,3.602-11.364,10.397-11.364,18.197c0,11.562,10.059,20.934,22.468,20.934c0.705,0,1.403-0.033,2.092-0.094
					c4.122,4.649,10.358,7.617,17.335,7.617c11.471,0,20.925-8.011,22.293-18.351C79.772,155.451,84.635,148.477,84.635,140.439z" style="fill:#D7F7E4;"></path>
				<path d="M50.347,178.807c-6.894,0-13.392-2.749-17.95-7.568c-0.499,0.03-0.993,0.045-1.477,0.045
					c-13.216,0-23.968-10.063-23.968-22.434c0-7.768,4.329-14.997,11.357-19.076c0.247-12.171,10.902-22.003,23.964-22.003
					c8.091,0,15.716,3.9,20.112,10.231c13.116,0.11,23.75,10.133,23.75,22.437c0,8.109-4.626,15.514-12.127,19.503
					C72.16,170.752,62.136,178.807,50.347,178.807z M33.633,168.13l0.501,0.565c4.007,4.52,9.917,7.112,16.212,7.112
					c10.575,0,19.52-7.329,20.806-17.047l0.105-0.796l0.72-0.354c6.882-3.384,11.157-9.963,11.157-17.172
					c0-10.718-9.406-19.438-20.967-19.438c-0.128,0-0.255,0.005-0.382,0.009l-1,0.031l-0.458-0.718
					c-3.762-5.892-10.68-9.552-18.054-9.552c-11.562,0-20.969,8.718-20.969,19.435l0.029,1.34l-0.814,0.433
					c-6.518,3.46-10.567,9.925-10.567,16.872c0,10.716,9.406,19.434,20.968,19.434c0.637,0,1.296-0.029,1.96-0.088L33.633,168.13z" style="fill:#CCCCDE;"></path>
			</g>
			<path d="M61.789,118.75c-0.193,0-0.385,0.009-0.575,0.015
				c-3.141-4.919-8.383-8.534-14.573-9.775c4.898,1.229,9.023,4.208,11.559,8.175c0.165-0.004,2.416,3.886,2.583,3.886
				c10.647,0,15.601,5.738,15.601,15.659c0,6.896-2.583,11.291-8.704,14.301c-1.173,8.875-9.287,15.748-19.129,15.748
				c-5.99,0-11.34-2.543-14.877-6.532c-0.591,0.051-1.189,0.077-1.794,0.077c-10.649,0-19.013-5.047-19.013-14.967
				c0-6.682,2.989-9.973,8.432-13.938c-0.146-0.857-0.75-8.421,1.267-10.438c4.792-4.793,6.963-8.909,11.25-11.038
				c-8.414,3.025-14.385,10.627-14.385,19.534c0,0.148,0.009,0.299,0.012,0.447c-6.787,3.604-11.365,10.396-11.365,18.197
				c0,11.562,10.059,20.936,22.468,20.936c0.707,0,1.402-0.035,2.093-0.096c4.121,4.647,10.356,7.617,17.336,7.617
				c11.469,0,20.924-8.013,22.291-18.354c7.133-3.506,11.997-10.479,11.997-18.52C84.258,128.123,74.199,118.75,61.789,118.75z" style="opacity:0.1;fill:#6E6E96;enable-background:new    ;"></path>
			<g>
				<path d="M29.811,151.761c0,0,11.635,2.277,11.635,13.662c0,0,3.133,19.343-8.976,33.027h27.96
					c-0.277-0.387-24.422-32.643,2.449-51.816C46.491,156.004,29.811,151.761,29.811,151.761z" style="fill:#EDE3DA;"></path>
				<path d="M60.43,199.951H29.14l2.207-2.494c11.504-13.002,8.648-31.607,8.619-31.793l-0.02-0.24
					c0-9.079-8.399-11.683-10.144-12.124c-0.238-0.053-0.361-0.084-0.361-0.084l0.658-2.926c0,0,0.139,0.026,0.39,0.089
					c0.935,0.203,4.231,0.841,8.802,0.841c5.724,0,14.333-1.021,22.844-5.887l1.616,2.522c-6.631,4.732-10.568,10.711-11.702,17.772
					c-2.414,15.028,8.337,30.226,9.571,31.908l1.75,2.387L60.43,199.951z M35.605,196.951H57.6
					c-3.447-5.393-10.64-18.565-8.514-31.799c0.804-5.003,2.848-9.504,6.102-13.459c-6.069,2.011-11.711,2.526-15.897,2.526
					c-0.464,0-0.915-0.006-1.352-0.018c2.654,2.276,4.973,5.786,5.007,11.104C43.206,167.042,45.376,183.638,35.605,196.951z" style="fill:#CCCCDE;"></path>
			</g>
			<g>
				<path d="M37.178,128.922" style="fill:#D57E58;"></path>
			</g>
			<path d="M55.905,151.73c0,0-17.653,22.793-4.085,46.721h8.611
				C60.43,198.451,42.515,173.414,55.905,151.73z" style="opacity:0.11;fill:#6E6E96;enable-background:new    ;"></path>
		</g>
		<g style="display:inline;">
			<g>
				<path d="M254.475,139.156c0-10.828-9.42-19.604-21.04-19.604c-0.183,0-0.359,0.009-0.539,0.014
					c-3.669-5.744-10.396-9.596-18.091-9.596c-11.62,0-21.041,8.777-21.041,19.604c0,0.141,0.009,0.279,0.012,0.418
					c-6.354,3.375-10.644,9.74-10.644,17.043c0,10.826,9.421,19.605,21.04,19.605c0.66,0,1.312-0.033,1.96-0.091
					c3.858,4.355,9.698,7.136,16.233,7.136c10.738,0,19.596-7.5,20.875-17.187C249.92,153.213,254.475,146.684,254.475,139.156z" style="fill:#D7F7E4;"></path>
				<path d="M222.365,175.185c-6.468,0-12.563-2.573-16.847-7.086c-0.46,0.027-0.904,0.041-1.347,0.041
					c-12.429,0-22.54-9.468-22.54-21.105c0-7.289,4.053-14.077,10.637-17.92c0.262-11.426,10.271-20.646,22.536-20.646
					c7.589,0,14.744,3.651,18.884,9.583c12.312,0.128,22.286,9.545,22.286,21.103c0,7.613-4.335,14.567-11.367,18.327
					C242.852,167.63,233.437,175.185,222.365,175.185z M206.753,164.988l0.502,0.566c3.732,4.214,9.24,6.631,15.11,6.631
					c9.857,0,18.192-6.828,19.388-15.883l0.105-0.796l0.72-0.354c6.413-3.155,10.396-9.285,10.396-15.997
					c0-9.982-8.766-18.104-19.54-18.104c-0.109,0-0.216,0.004-0.322,0.007l-1.024,0.029l-0.456-0.715
					c-3.508-5.492-9.956-8.903-16.827-8.903c-10.775,0-19.541,8.122-19.541,18.104l0.031,1.31l-0.815,0.433
					c-6.074,3.227-9.848,9.25-9.848,15.719c0,9.983,8.766,18.105,19.54,18.105c0.587,0,1.185-0.027,1.827-0.085L206.753,164.988z" style="fill:#CCCCDE;"></path>
			</g>
			<path d="M233.081,118.845c-0.184,0-0.358,0.009-0.539,0.013
				c-2.94-4.606-7.853-7.992-13.646-9.154c4.586,1.15,8.449,3.94,10.822,7.655c0.154-0.004,2.263,3.639,2.419,3.639
				c9.971,0,14.608,5.374,14.608,14.664c0,6.459-2.42,10.574-8.148,13.396c-1.1,8.311-8.698,14.741-17.914,14.741
				c-5.606,0-10.619-2.381-13.934-6.116c-0.557,0.047-1.112,0.071-1.682,0.071c-9.975,0-17.806-4.727-17.806-14.016
				c0-6.256,2.8-9.338,7.896-13.055c-0.139-0.806-0.701-7.886,1.188-9.771c4.486-4.488,6.521-8.343,10.535-10.337
				c-7.879,2.833-13.471,9.952-13.471,18.292c0,0.139,0.006,0.275,0.012,0.418c-6.355,3.373-10.646,9.736-10.646,17.041
				c0,10.824,9.42,19.604,21.041,19.604c0.661,0,1.313-0.031,1.959-0.089c3.859,4.355,9.699,7.134,16.234,7.134
				c10.74,0,19.594-7.5,20.875-17.187c6.68-3.285,11.232-9.813,11.232-17.342C254.122,127.623,244.702,118.845,233.081,118.845z" style="opacity:0.1;fill:#6E6E96;enable-background:new    ;"></path>
			<g>
				<path d="M203.135,149.758c0,0,10.896,2.134,10.896,12.797c0,0,2.934,18.109-8.406,30.929h26.184
					c-0.26-0.359-22.87-30.566,2.294-48.521C218.754,153.732,203.135,149.758,203.135,149.758z" style="fill:#EDE3DA;"></path>
				<path d="M231.809,194.983h-29.513l2.206-2.494c10.718-12.116,8.076-29.521,8.049-29.696l-0.02-0.238
					c0-8.431-7.802-10.853-9.427-11.264c-0.224-0.05-0.34-0.079-0.34-0.079l0.658-2.926c0,0,0.132,0.024,0.368,0.084
					c0.876,0.19,3.956,0.786,8.228,0.786c5.347,0,13.39-0.954,21.34-5.497l1.615,2.523c-6.193,4.419-9.868,10.003-10.923,16.596
					c-2.249,14.062,7.798,28.227,8.951,29.796l1.755,2.388L231.809,194.983z M208.748,191.983h20.233
					c-3.271-5.143-9.863-17.358-7.893-29.679c0.736-4.604,2.59-8.757,5.534-12.417c-5.577,1.803-10.748,2.269-14.604,2.269
					c-0.344,0-0.681-0.004-1.011-0.01c2.418,2.148,4.49,5.411,4.523,10.29C215.78,164.099,217.781,179.527,208.748,191.983z" style="fill:#CCCCDE;"></path>
			</g>
			<g>
				<path d="M210.036,128.373" style="fill:#D57E58;"></path>
			</g>
			<path d="M227.571,149.73c0,0-16.53,21.344-3.823,43.752h8.062
				C231.808,193.482,215.032,170.035,227.571,149.73z" style="opacity:0.11;fill:#6E6E96;enable-background:new    ;"></path>
		</g>
		<g style="display:inline;">
			<g>
				<path d="M217.773,140.916c0-16.621-14.461-30.094-32.299-30.094c-0.278,0-0.554,0.012-0.828,0.019
					c-5.632-8.816-15.959-14.729-27.771-14.729c-17.838,0-32.301,13.475-32.301,30.096c0,0.215,0.014,0.428,0.018,0.646
					c-9.755,5.18-16.339,14.945-16.339,26.156c0,16.621,14.462,30.099,32.3,30.099c1.014,0,2.018-0.051,3.008-0.14
					c5.926,6.689,14.89,10.951,24.921,10.951c16.489,0,30.081-11.514,32.049-26.379
					C210.782,162.498,217.773,152.469,217.773,140.916z" style="fill:#D7F7E4;"></path>
				<path d="M168.482,195.421c-9.84,0-19.103-3.962-25.537-10.897c-0.817,0.057-1.619,0.086-2.392,0.086
					c-18.637,0-33.8-14.175-33.8-31.599c0-11.045,6.229-21.323,16.322-27.035c0.134-17.315,15.245-31.363,33.8-31.363
					c11.535,0,22.398,5.615,28.566,14.71c18.652-0.032,33.831,14.163,33.831,31.594c0,11.516-6.635,22.026-17.37,27.613
					C199.444,183.915,185.226,195.421,168.482,195.421z M144.181,181.408l0.503,0.566c5.88,6.639,14.555,10.446,23.798,10.446
					c15.53,0,28.67-10.78,30.562-25.076l0.105-0.795l0.72-0.354c10.118-4.979,16.404-14.665,16.404-25.28
					c0-15.767-13.816-28.594-30.799-28.594c-0.182,0-0.362,0.006-0.543,0.011l-1.094,0.028l-0.455-0.713
					c-5.531-8.658-15.688-14.036-26.507-14.036c-16.983,0-30.801,12.828-30.801,28.596c0,0.105,0.004,0.211,0.008,0.317l0.025,1.223
					l-0.812,0.432c-9.587,5.09-15.542,14.604-15.542,24.831c0,15.77,13.817,28.599,30.8,28.599c0.919,0,1.886-0.045,2.874-0.134
					L144.181,181.408z" style="fill:#CCCCDE;"></path>
			</g>
			<path d="M184.931,109.738c-0.276,0-0.552,0.012-0.827,0.019
				c-4.516-7.07-12.051-12.269-20.949-14.052c7.041,1.766,12.972,6.049,16.614,11.751c0.237-0.006,3.475,5.586,3.713,5.586
				c15.309,0,22.43,8.248,22.43,22.511c0,9.914-3.716,16.232-12.514,20.563c-1.687,12.754-13.353,22.635-27.5,22.635
				c-8.609,0-16.302-3.656-21.387-9.395c-0.851,0.069-1.71,0.112-2.58,0.112c-15.31,0-27.332-7.254-27.332-21.516
				c0-9.604,4.298-14.336,12.12-20.039c-0.209-1.234-1.077-12.104,1.82-15.002c6.89-6.89,10.011-12.808,16.174-15.868
				c-12.096,4.35-20.679,15.277-20.679,28.08c0,0.215,0.011,0.428,0.017,0.646c-9.756,5.177-16.34,14.946-16.34,26.155
				c0,16.621,14.461,30.099,32.3,30.099c1.017,0,2.017-0.049,3.008-0.135c5.925,6.688,14.891,10.946,24.922,10.946
				c16.487,0,30.078-11.514,32.046-26.379c10.255-5.043,17.244-15.067,17.244-26.623
				C217.231,123.211,202.77,109.738,184.931,109.738z" style="opacity:0.1;fill:#6E6E96;enable-background:new    ;"></path>
			<g>
				<path d="M138.959,157.193c0,0,16.727,3.271,16.727,19.643c0,0,4.504,27.806-12.903,47.479h40.194
					c-0.397-0.556-35.106-46.922,3.521-74.484C162.939,163.293,138.959,157.193,138.959,157.193z" style="fill:#EDE3DA;"></path>
				<path d="M182.977,225.815h-43.524l2.207-2.494c16.742-18.923,12.59-45.975,12.546-46.245l-0.02-0.24
					c0-13.558-12.515-17.421-15.085-18.07c-0.336-0.073-0.512-0.118-0.512-0.118l0.658-2.926c0,0,0.192,0.037,0.54,0.123
					c1.349,0.295,6.155,1.228,12.809,1.228c8.306,0,20.801-1.482,33.158-8.544l1.615,2.523c-9.679,6.906-15.428,15.644-17.088,25.97
					c-3.515,21.854,12.084,43.921,13.874,46.365l1.748,2.386L182.977,225.815z M145.972,222.815h34.146
					c-4.572-6.929-15.964-26.582-12.798-46.27c1.265-7.865,4.703-14.86,10.255-20.893c-9.523,3.548-18.48,4.419-24.979,4.419
					c-1.403,0-2.725-0.039-3.954-0.104c4.313,3.1,8.505,8.287,8.544,16.75C157.523,178.925,160.875,203.587,145.972,222.815z" style="fill:#CCCCDE;"></path>
			</g>
			<g>
				<path d="M149.552,124.362" style="fill:#D57E58;"></path>
			</g>
			<path d="M176.472,157.148c0,0-25.378,32.766-5.873,67.164h12.378
				C182.977,224.313,157.223,188.32,176.472,157.148z" style="opacity:0.11;fill:#6E6E96;enable-background:new    ;"></path>
		</g>
		<g style="display:inline;">
			<g>
				<path d="M145.936,142.027c0-13.646-11.873-24.707-26.517-24.707c-0.229,0-0.454,0.01-0.68,0.016
					c-4.624-7.238-13.103-12.092-22.801-12.092c-14.644,0-26.518,11.063-26.518,24.706c0,0.178,0.012,0.354,0.015,0.529
					c-8.01,4.252-13.414,12.271-13.414,21.477c0,13.646,11.872,24.707,26.519,24.707c0.832,0,1.654-0.041,2.469-0.106
					c4.864,5.485,12.224,8.985,20.46,8.985c13.537,0,24.695-9.451,26.309-21.654C140.196,159.746,145.936,151.514,145.936,142.027z" style="fill:#D7F7E4;"></path>
				<path d="M105.469,187.042c-8.109,0-15.747-3.248-21.079-8.938c-0.649,0.039-1.259,0.059-1.85,0.059
					c-15.45,0-28.019-11.757-28.019-26.207c0-9.118,5.111-17.604,13.402-22.355c0.2-14.29,12.69-25.856,28.015-25.856
					c9.509,0,18.468,4.606,23.596,12.076c15.395,0.059,27.901,11.793,27.901,26.207c0,9.512-5.454,18.197-14.288,22.846
					C131.051,177.567,119.3,187.042,105.469,187.042z M85.635,175.002l0.496,0.56c4.779,5.39,11.828,8.48,19.338,8.48
					c12.617,0,23.288-8.749,24.821-20.351l0.105-0.796l0.72-0.354c8.216-4.043,13.32-11.903,13.32-20.515
					c0-12.797-11.223-23.207-25.017-23.207c-0.149,0-0.295,0.005-0.441,0.009l-1.046,0.028l-0.456-0.714
					c-4.492-7.031-12.744-11.399-21.537-11.399c-13.795,0-25.018,10.41-25.018,23.206l0.03,1.423l-0.812,0.432
					c-7.783,4.131-12.617,11.853-12.617,20.151c0,12.797,11.223,23.207,25.019,23.207c0.729,0,1.497-0.033,2.349-0.102
					L85.635,175.002z" style="fill:#CCCCDE;"></path>
			</g>
			<path d="M118.973,116.432c-0.228,0-0.452,0.009-0.679,0.015
				c-3.707-5.805-9.895-10.072-17.199-11.537c5.78,1.45,10.648,4.966,13.641,9.647c0.194-0.006,2.852,4.586,3.049,4.586
				c12.566,0,18.414,6.771,18.414,18.479c0,8.139-3.051,13.326-10.271,16.881c-1.384,10.474-10.961,18.584-22.576,18.584
				c-7.068,0-13.384-3.004-17.559-7.715c-0.698,0.062-1.404,0.096-2.118,0.096c-12.568,0-22.438-5.957-22.438-17.664
				c0-7.885,3.528-11.77,9.949-16.45c-0.171-1.017-0.884-9.938,1.496-12.316c5.655-5.657,8.218-10.515,13.277-13.028
				c-9.931,3.571-16.979,12.542-16.979,23.055c0,0.176,0.011,0.352,0.016,0.526c-8.012,4.25-13.415,12.271-13.415,21.478
				c0,13.645,11.873,24.707,26.518,24.707c0.834,0,1.655-0.041,2.469-0.109c4.864,5.488,12.225,8.988,20.461,8.988
				c13.536,0,24.693-9.451,26.311-21.656c8.418-4.141,14.158-12.371,14.158-21.854C145.491,127.494,133.618,116.432,118.973,116.432
				z" style="opacity:0.1;fill:#6E6E96;enable-background:new    ;"></path>
			<g>
				<path d="M81.232,155.391c0,0,13.731,2.688,13.731,16.129c0,0,3.697,22.821-10.595,38.977h33
					c-0.328-0.455-28.824-38.52,2.89-61.152C100.918,160.398,81.232,155.391,81.232,155.391z" style="fill:#EDE3DA;"></path>
				<path d="M117.368,211.997h-36.33l2.206-2.494c13.636-15.413,10.273-37.522,10.237-37.743l-0.019-0.239
					c0-10.928-10.095-14.05-12.18-14.577c-0.277-0.062-0.421-0.098-0.421-0.098l0.658-2.926c0,0,0.161,0.03,0.45,0.103
					c1.105,0.241,5.024,1,10.454,1c6.787,0,16.996-1.211,27.09-6.98l1.616,2.523c-7.892,5.633-12.577,12.755-13.924,21.168
					c-2.86,17.867,9.888,35.854,11.351,37.847l1.753,2.388L117.368,211.997z M87.53,208.997h26.991
					c-3.932-6.046-12.823-21.843-10.278-37.737c0.989-6.178,3.596-11.705,7.777-16.519c-7.479,2.623-14.467,3.281-19.597,3.281
					c-0.832,0-1.628-0.017-2.388-0.045c3.334,2.627,6.391,6.832,6.427,13.425C96.756,173.339,99.41,193.244,87.53,208.997z" style="fill:#CCCCDE;"></path>
			</g>
			<g>
				<path d="M89.928,128.438" style="fill:#D57E58;"></path>
			</g>
			<path d="M112.028,155.355c0,0-20.835,26.897-4.82,55.141h10.162
				C117.369,210.496,96.225,180.945,112.028,155.355z" style="opacity:0.11;fill:#6E6E96;enable-background:new    ;"></path>
		</g>
		<g style="display:inline;">
			<g>
				<path d="M253.159,166.164c0-12.344-10.74-22.35-23.988-22.35c-0.203,0-0.407,0.008-0.611,0.014
					c-4.186-6.549-11.854-10.938-20.625-10.938c-13.248,0-23.985,10.008-23.985,22.35c0,0.162,0.012,0.318,0.014,0.479
					c-7.244,3.851-12.135,11.105-12.135,19.433c0,12.346,10.736,22.352,23.985,22.352c0.753,0,1.497-0.039,2.23-0.102
					c4.399,4.967,11.061,8.133,18.511,8.133c12.245,0,22.339-8.551,23.799-19.592C247.965,182.191,253.159,174.746,253.159,166.164z" style="fill:#D7F7E4;"></path>
				<path d="M216.555,207.034c-7.354,0-14.281-2.937-19.127-8.083c-0.562,0.034-1.096,0.052-1.614,0.052
					c-14.053,0-25.485-10.7-25.485-23.852c0-8.271,4.622-15.974,12.125-20.311c0.229-12.967,11.571-23.45,25.481-23.45
					c8.621,0,16.747,4.165,21.42,10.925c13.971,0.092,25.305,10.755,25.305,23.849c0,8.632-4.937,16.519-12.937,20.763
					C239.782,198.445,229.111,207.034,216.555,207.034z M198.667,195.843l0.5,0.564c4.293,4.847,10.631,7.627,17.388,7.627
					c11.341,0,20.934-7.862,22.312-18.288l0.105-0.795l0.719-0.354c7.383-3.638,11.969-10.701,11.969-18.433
					c0-11.496-10.088-20.85-22.488-20.85c-0.147,0-0.295,0.005-0.442,0.01l-0.976,0.027l-0.457-0.716
					c-4.039-6.319-11.458-10.245-19.361-10.245c-12.398,0-22.485,9.354-22.485,20.85l0.024,1.374l-0.807,0.429
					c-6.994,3.718-11.339,10.656-11.339,18.108c0,11.498,10.087,20.852,22.485,20.852c0.656,0,1.344-0.031,2.104-0.096
					L198.667,195.843z" style="fill:#CCCCDE;"></path>
			</g>
			<path d="M228.767,143.008c-0.206,0-0.409,0.013-0.614,0.017
				c-3.354-5.25-8.948-9.111-15.558-10.438c5.229,1.313,9.633,4.492,12.339,8.729c0.175-0.004,2.579,4.147,2.757,4.147
				c11.368,0,16.655,6.123,16.655,16.72c0,7.36-2.757,12.055-9.291,15.27c-1.252,9.473-9.915,16.814-20.423,16.814
				c-6.396,0-12.106-2.722-15.884-6.98c-0.631,0.055-1.271,0.086-1.916,0.086c-11.368,0-20.299-5.389-20.299-15.979
				c0-7.136,3.189-10.646,9.002-14.886c-0.156-0.918-0.804-8.985,1.353-11.141c5.116-5.117,7.436-9.512,12.011-11.785
				c-8.979,3.23-15.356,11.346-15.356,20.855c0,0.157,0.012,0.315,0.016,0.479c-7.246,3.846-12.137,11.104-12.137,19.428
				c0,12.345,10.738,22.351,23.988,22.351c0.754,0,1.496-0.035,2.23-0.101c4.401,4.968,11.061,8.134,18.509,8.134
				c12.245,0,22.338-8.554,23.8-19.593c7.614-3.743,12.811-11.19,12.811-19.771C252.754,153.016,242.016,143.008,228.767,143.008z" style="opacity:0.1;fill:#6E6E96;enable-background:new    ;"></path>
			<g>
				<path d="M194.625,178.252c0,0,12.422,2.433,12.422,14.588c0,0,3.345,20.646-9.584,35.261h29.853
					c-0.296-0.41-26.072-34.849,2.615-55.318C212.435,182.783,194.625,178.252,194.625,178.252z" style="fill:#EDE3DA;"></path>
				<path d="M227.316,229.6h-33.183l2.207-2.494c12.288-13.891,9.258-33.828,9.227-34.028l-0.02-0.238
					c0-9.771-9.035-12.571-10.908-13.045c-0.252-0.056-0.384-0.089-0.384-0.089l0.658-2.926c0,0,0.147,0.028,0.412,0.094
					c0.999,0.218,4.531,0.902,9.427,0.902c6.122,0,15.331-1.093,24.435-6.297l1.615,2.523c-7.106,5.071-11.324,11.481-12.537,19.053
					c-2.579,16.109,8.921,32.334,10.241,34.132l1.754,2.388L227.316,229.6z M200.609,226.6h23.868
					c-3.633-5.64-11.454-19.779-9.174-34.019c0.872-5.444,3.125-10.332,6.725-14.61c-6.595,2.235-12.737,2.805-17.275,2.805
					c-0.6,0-1.179-0.01-1.738-0.027c2.909,2.411,5.498,6.182,5.533,11.973C208.82,194.534,211.169,212.37,200.609,226.6z" style="fill:#CCCCDE;"></path>
			</g>
			<g>
				<path d="M202.493,153.871" style="fill:#D57E58;"></path>
			</g>
			<path d="M222.485,178.219c0,0-18.847,24.334-4.36,49.882h9.191
				C227.316,228.1,208.189,201.369,222.485,178.219z" style="opacity:0.11;fill:#6E6E96;enable-background:new    ;"></path>
		</g>
		<g style="display:inline;">
			<g>
				<path d="M88.893,164.313c0-13.111-11.408-23.738-25.479-23.738c-0.221,0-0.437,0.008-0.653,0.014
					c-4.443-6.955-12.589-11.614-21.907-11.614c-14.07,0-25.479,10.629-25.479,23.737c0,0.17,0.011,0.336,0.015,0.506
					C7.694,157.302,2.5,165.011,2.5,173.857c0,13.106,11.407,23.735,25.479,23.735c0.8,0,1.59-0.041,2.372-0.104
					c4.674,5.271,11.745,8.639,19.659,8.639c13.007,0,23.729-9.082,25.279-20.809C83.378,181.336,88.893,173.427,88.893,164.313z" style="fill:#D7F7E4;"></path>
				<path d="M50.01,207.628c-7.795,0-15.142-3.122-20.278-8.592c-0.622,0.038-1.201,0.057-1.753,0.057
					C13.103,199.093,1,187.772,1,173.857c0-8.773,4.911-16.938,12.877-21.518c0.213-13.746,12.232-24.865,26.977-24.865
					c9.146,0,17.764,4.425,22.703,11.601c14.811,0.072,26.836,11.366,26.836,25.238c0,9.149-5.242,17.507-13.734,21.991
					C74.628,198.516,63.319,207.628,50.01,207.628z M30.977,195.934l0.496,0.56c4.584,5.169,11.341,8.134,18.537,8.134
					c12.094,0,22.323-8.386,23.792-19.505l0.105-0.795l0.719-0.354c7.875-3.878,12.766-11.411,12.766-19.66
					c0-12.263-10.757-22.238-23.979-22.238c-0.162,0-0.321,0.005-0.48,0.01l-0.98,0.026l-0.457-0.715
					c-4.304-6.737-12.214-10.922-20.643-10.922c-13.222,0-23.979,9.976-23.979,22.237l0.036,1.396l-0.818,0.435
					C8.634,158.502,4,165.903,4,173.857c0,12.261,10.757,22.235,23.979,22.235c0.684,0,1.421-0.032,2.252-0.099L30.977,195.934z" style="fill:#CCCCDE;"></path>
			</g>
			<path d="M62.986,139.719c-0.219,0-0.435,0.011-0.651,0.017
				c-3.562-5.578-9.506-9.678-16.525-11.086c5.553,1.393,10.231,4.771,13.106,9.27c0.186-0.004,2.738,4.406,2.928,4.406
				c12.076,0,17.692,6.506,17.692,17.758c0,7.82-2.93,12.805-9.87,16.221c-1.33,10.064-10.531,17.855-21.693,17.855
				c-6.792,0-12.859-2.885-16.871-7.412c-0.67,0.057-1.348,0.092-2.035,0.092c-12.075,0-21.561-5.723-21.561-16.975
				c0-7.574,3.391-11.307,9.561-15.807c-0.165-0.976-0.85-9.55,1.438-11.837c5.435-5.434,7.896-10.102,12.758-12.516
				c-9.541,3.43-16.312,12.051-16.312,22.148c0,0.17,0.01,0.338,0.014,0.508c-7.696,4.084-12.889,11.791-12.889,20.637
				c0,13.107,11.406,23.736,25.479,23.736c0.801,0,1.591-0.039,2.373-0.104c4.674,5.273,11.745,8.64,19.659,8.64
				c13.006,0,23.728-9.082,25.277-20.81c8.09-3.979,13.604-11.891,13.604-21.002C88.466,150.345,77.058,139.719,62.986,139.719z" style="opacity:0.1;fill:#6E6E96;enable-background:new    ;"></path>
			<g>
				<path d="M26.723,177.152c0,0,13.193,2.584,13.193,15.496c0,0,3.553,21.932-10.18,37.451h31.707
					c-0.313-0.438-27.693-37.017,2.777-58.761C45.638,181.963,26.723,177.152,26.723,177.152z" style="fill:#EDE3DA;"></path>
				<path d="M61.444,231.599H26.406l2.207-2.494c13.11-14.815,9.857-36.005,9.823-36.217l-0.02-0.24
					c0-10.453-9.661-13.442-11.659-13.948c-0.266-0.059-0.405-0.094-0.405-0.094l0.659-2.926c0,0,0.154,0.029,0.433,0.099
					c1.061,0.231,4.819,0.96,10.029,0.96c6.515,0,16.314-1.163,26.003-6.702l1.616,2.522c-7.562,5.397-12.054,12.22-13.351,20.279
					c-2.752,17.112,9.483,34.423,10.888,36.341l1.748,2.386L61.444,231.599z M32.892,228.599h25.711
					c-3.808-5.89-12.268-21.042-9.824-36.237c0.943-5.865,3.402-11.122,7.337-15.709c-7.116,2.464-13.757,3.086-18.644,3.086
					c-0.734,0-1.439-0.014-2.115-0.038c3.159,2.539,6.022,6.566,6.058,12.829C41.701,194.417,44.23,213.474,32.892,228.599z" style="fill:#CCCCDE;"></path>
			</g>
			<g>
				<path d="M35.078,151.254" style="fill:#D57E58;"></path>
			</g>
			<path d="M56.313,177.117c0,0-20.02,25.848-4.633,52.982h9.764
				C61.444,230.1,41.129,201.707,56.313,177.117z" style="opacity:0.11;fill:#6E6E96;enable-background:new    ;"></path>
		</g>
	</g>
	<path d="M214.225,57.646h-14c-0.828,0-1.5-0.671-1.5-1.5s0.672-1.5,1.5-1.5h14c0.828,0,1.5,0.671,1.5,1.5
		S215.053,57.646,214.225,57.646z" style="fill:#FFFFFF;"></path>
	<path d="M228.225,57.646h-4c-0.828,0-1.5-0.671-1.5-1.5s0.672-1.5,1.5-1.5h4c0.828,0,1.5,0.671,1.5,1.5
		S229.053,57.646,228.225,57.646z" style="fill:#FFFFFF;"></path>
	<path d="M238.26,66.646h-18.035c-0.828,0-1.5-0.671-1.5-1.5s0.672-1.5,1.5-1.5h18.035
		c0.828,0,1.5,0.671,1.5,1.5S239.088,66.646,238.26,66.646z" style="fill:#FFFFFF;"></path>
	<path d="M209.225,66.646h-5c-0.828,0-1.5-0.671-1.5-1.5s0.672-1.5,1.5-1.5h5c0.828,0,1.5,0.671,1.5,1.5
		S210.053,66.646,209.225,66.646z" style="fill:#FFFFFF;"></path>
	<path d="M32.225,134.146h-9c-0.829,0-1.5-0.672-1.5-1.5s0.671-1.5,1.5-1.5h9c0.829,0,1.5,0.672,1.5,1.5
		S33.053,134.146,32.225,134.146z" style="fill:#FFFFFF;"></path>
	<path d="M17.725,134.146h-5.5c-0.829,0-1.5-0.672-1.5-1.5s0.671-1.5,1.5-1.5h5.5c0.829,0,1.5,0.672,1.5,1.5
		S18.553,134.146,17.725,134.146z" style="fill:#FFFFFF;"></path>
	<path d="M24.975,126.896h-15.5c-0.829,0-1.5-0.672-1.5-1.5c0-0.829,0.671-1.5,1.5-1.5h15.5
		c0.829,0,1.5,0.671,1.5,1.5C26.475,126.224,25.803,126.896,24.975,126.896z" style="fill:#FFFFFF;"></path>
	<path d="M36.725,126.896h-4.5c-0.829,0-1.5-0.672-1.5-1.5c0-0.829,0.671-1.5,1.5-1.5h4.5
		c0.829,0,1.5,0.671,1.5,1.5C38.225,126.224,37.553,126.896,36.725,126.896z" style="fill:#FFFFFF;"></path>
	<path d="M48.849,242.662H36.225c-0.829,0-1.5-0.672-1.5-1.5s0.671-1.5,1.5-1.5h12.624
		c0.829,0,1.5,0.672,1.5,1.5S49.677,242.662,48.849,242.662z" style="fill:#CCCCDE;"></path>
	<path d="M24.225,242.662h-5c-0.829,0-1.5-0.672-1.5-1.5s0.671-1.5,1.5-1.5h5c0.829,0,1.5,0.672,1.5,1.5
		S25.053,242.662,24.225,242.662z" style="fill:#CCCCDE;"></path>
	<path d="M220.225,242.662h-13c-0.828,0-1.5-0.672-1.5-1.5s0.672-1.5,1.5-1.5h13c0.828,0,1.5,0.672,1.5,1.5
		S221.053,242.662,220.225,242.662z" style="fill:#CCCCDE;"></path>
	<path d="M237.225,242.662h-8c-0.828,0-1.5-0.672-1.5-1.5s0.672-1.5,1.5-1.5h8c0.828,0,1.5,0.672,1.5,1.5
		S238.053,242.662,237.225,242.662z" style="fill:#CCCCDE;"></path>
</g>
<g id="Layer_3_2_">
</g>
<g id="Layer_2">
	<g>
		<path d="M240.18,115.55c0.725-2.219,2.993-4.943,5.045-6.057l0.009-0.004c2.055-1.113,2.055-2.932,0-4.043
			l-0.009-0.006c-2.052-1.111-4.438-3.617-5.3-5.566c-0.863-1.951-2.275-1.951-3.14,0c-0.862,1.951-3.248,4.455-5.304,5.566
			l-0.01,0.006c-2.055,1.111-2.055,2.93,0,4.043l0.01,0.004c2.056,1.112,4.321,3.838,5.045,6.057l0.515,1.568
			c0.724,2.22,1.899,2.22,2.627,0L240.18,115.55z" style="fill:#FFBF00;"></path>
	</g>
	<g>
		<path d="M26.998,56c0.677-2.079,2.803-4.632,4.728-5.673l0.008-0.004c1.923-1.042,1.923-2.746,0-3.787
			l-0.008-0.005c-1.922-1.042-4.157-3.388-4.966-5.215c-0.808-1.826-2.131-1.826-2.937,0c-0.809,1.828-3.045,4.173-4.965,5.215
			l-0.01,0.005c-1.92,1.041-1.92,2.745,0,3.787l0.01,0.004c1.92,1.041,4.049,3.595,4.729,5.673l0.478,1.469
			c0.678,2.08,1.784,2.08,2.461,0L26.998,56z" style="fill:#FFB0B8;"></path>
	</g>
	<g>
		<path d="M13.234,191.22c0.615-1.887,2.546-4.206,4.292-5.15l0.008-0.005c1.745-0.944,1.745-2.493,0-3.438
			l-0.008-0.006c-1.746-0.943-3.774-3.076-4.508-4.735c-0.733-1.657-1.936-1.657-2.67,0c-0.732,1.659-2.763,3.792-4.509,4.735
			l-0.007,0.006c-1.746,0.943-1.746,2.492,0,3.438l0.007,0.005c1.746,0.944,3.677,3.267,4.292,5.15l0.435,1.334
			c0.615,1.891,1.621,1.891,2.235,0L13.234,191.22z" style="fill:#7FDCFF;"></path>
	</g>
	<g id="Layer_7_1_">
		<path d="M226.623,211.893c0.635-1.947,2.626-4.34,4.428-5.315l0.009-0.003c1.802-0.978,1.802-2.574,0-3.546
			l-0.009-0.008c-1.802-0.976-3.894-3.174-4.65-4.887c-0.758-1.709-2-1.709-2.759,0c-0.754,1.713-2.85,3.911-4.65,4.887
			l-0.008,0.008c-1.803,0.972-1.803,2.567,0,3.546l0.008,0.003c1.802,0.978,3.794,3.372,4.428,5.315l0.452,1.375
			c0.631,1.948,1.673,1.948,2.303,0L226.623,211.893z" style="fill:#DEC2FF;"></path>
	</g>
	<g>
		<path d="M199.967,25.5c0.465-1.429,1.926-3.184,3.248-3.897l0.006-0.003c1.32-0.717,1.32-1.889,0-2.604
			l-0.006-0.003c-1.32-0.717-2.855-2.328-3.412-3.584c-0.555-1.255-1.465-1.255-2.019,0c-0.556,1.256-2.092,2.867-3.411,3.584
			l-0.007,0.003c-1.319,0.715-1.319,1.886,0,2.604l0.007,0.003c1.319,0.715,2.78,2.47,3.248,3.897l0.329,1.009
			c0.466,1.431,1.226,1.431,1.69,0L199.967,25.5z" style="fill:#FFB0B8;"></path>
	</g>
	<g>
		<path d="M157.475,233.504c0.465-1.429,1.926-3.184,3.248-3.897l0.006-0.003c1.32-0.717,1.32-1.889,0-2.604
			l-0.006-0.003c-1.32-0.717-2.854-2.328-3.412-3.584c-0.555-1.255-1.465-1.255-2.019,0c-0.556,1.256-2.091,2.867-3.411,3.584
			L151.875,227c-1.319,0.715-1.319,1.886,0,2.604l0.007,0.003c1.32,0.715,2.781,2.47,3.248,3.897l0.329,1.009
			c0.466,1.431,1.226,1.431,1.69,0L157.475,233.504z" style="fill:#FFB0B8;"></path>
	</g>
	<g>
		<path d="M26.977,105.898c0.465-1.43,1.926-3.185,3.248-3.898l0.006-0.003c1.32-0.716,1.32-1.888,0-2.603
			l-0.006-0.003c-1.32-0.718-2.854-2.328-3.412-3.584c-0.555-1.256-1.465-1.256-2.019,0c-0.555,1.256-2.091,2.866-3.411,3.584
			l-0.007,0.003c-1.319,0.715-1.319,1.886,0,2.603L21.383,102c1.32,0.715,2.781,2.47,3.248,3.898l0.329,1.009
			c0.466,1.43,1.226,1.43,1.69,0L26.977,105.898z" style="fill:#FFFF00;"></path>
	</g>
</g>
<g id="Layer_4">
	<g>
		<path d="M111.128,152.33c-97.846-39.46-80.571-94.011-59.792-98.23c17.098-3.474,21.11,11.712,21.11,11.712
			s1.935,9.387-4.866,9.387s-4.911-12.659-13.223-12.659c-10.2,0-24.969,43.502,46.622,77.855L111.128,152.33z" style="fill:#EDB0B0;"></path>
		<path d="M37.125,91.252c0,0,13.986,32.476,66.017,52.854l6.163,7.479
			C109.305,151.585,53.644,130.902,37.125,91.252z" style="fill:#D9A1A1;"></path>
		<path d="M60.196,111.715L60.196,111.715C37.011,85.789,46.903,62.54,54.359,62.54
			c8.312,0,6.423,12.659,13.223,12.659c6.801,0,4.867-9.387,4.867-9.387s-0.375-1.41-1.377-3.271l0,0c0,0,1.421,4.494-4.494,4.494
			c-5.913,0-6.303-15.544-19.686-4.917C32.544,73.51,50.29,105.612,60.196,111.715z" style="fill:#D9A1A1;"></path>
		<path d="M149.585,152.33c8.435-3.401,16.014-6.918,22.809-10.5c72.033-37.992,55.973-83.874,36.984-87.73
			c-17.097-3.474-21.11,11.712-21.11,11.712s-1.935,9.387,4.865,9.387c6.799,0,4.911-12.659,13.223-12.659
			c10.201,0,24.969,43.502-46.62,77.855L149.585,152.33z" style="fill:#EDB0B0;"></path>
		<path d="M223.341,92.097c0,0-13.986,32.474-66.017,52.854l-6.16,7.479
			C151.165,152.429,206.824,131.744,223.341,92.097z" style="fill:#D9A1A1;"></path>
		<path d="M200.272,112.559L200.272,112.559c23.187-25.927,13.294-49.176,5.836-49.176
			c-8.311,0-6.422,12.659-13.224,12.659c-6.798,0-4.864-9.387-4.864-9.387s0.375-1.411,1.375-3.271l0,0c0,0-1.418,4.495,4.495,4.495
			c5.914,0,6.302-15.545,19.686-4.917C227.924,74.355,210.176,106.456,200.272,112.559z" style="fill:#D9A1A1;"></path>
		<path d="M110.567,153.721c-28.28-11.405-49.243-24.933-62.308-40.206
			c-13.31-15.56-15.167-29.031-14.382-37.592c1.09-11.885,8.147-21.464,17.16-23.294c1.785-0.362,3.521-0.546,5.159-0.546
			c14.013,0,17.665,13.212,17.7,13.345c0.142,0.675,1.143,5.983-1.416,9.124c-1.145,1.404-2.839,2.146-4.9,2.146
			c-4.205,0-5.798-3.583-7.204-6.745c-1.636-3.68-2.858-5.915-6.019-5.915c-2.169,0-5.183,3.383-6.471,9.043
			c-1.375,6.048-5.251,37.651,53.742,65.959l0.288,0.138l10.354,12.179L110.567,153.721z M56.197,55.083
			c-1.438,0-2.974,0.164-4.562,0.487c-8.615,1.749-13.951,11.701-14.77,20.628c-2.371,25.845,23.338,52.642,69.073,72.344
			l-5.895-6.934C39.299,112.347,43.5,78.844,44.962,72.417c1.524-6.699,5.388-11.378,9.396-11.378c5.339,0,7.236,4.267,8.76,7.695
			c1.368,3.078,2.316,4.964,4.462,4.964c1.159,0,2-0.339,2.572-1.038c1.415-1.73,1.075-5.313,0.825-6.548
			C70.875,65.744,67.867,55.083,56.197,55.083z" style="fill:#6E6E96;"></path>
		<path d="M150.146,153.721l-1.703-2.363l10.356-12.179l0.287-0.138
			c58.992-28.309,55.116-59.912,53.74-65.959c-1.288-5.661-4.302-9.043-6.471-9.043c-3.161,0-4.384,2.235-6.021,5.915
			c-1.405,3.161-2.999,6.744-7.202,6.744c-2.061,0-3.755-0.742-4.899-2.146c-2.559-3.141-1.558-8.449-1.435-9.043
			c0.054-0.214,3.706-13.426,17.719-13.426c1.639,0,3.374,0.184,5.159,0.547c8.407,1.708,15.379,10.558,16.951,21.523
			c1.046,7.288,0.325,18.871-9.044,32.667c-9.037,13.307-24.006,25.532-44.49,36.336
			C166.074,146.856,158.355,150.411,150.146,153.721z M160.672,141.608l-5.899,6.938c5.982-2.57,11.653-5.266,16.922-8.043
			c20.045-10.572,34.65-22.472,43.408-35.368c8.829-13.002,9.526-23.793,8.557-30.556c-1.396-9.733-7.392-17.55-14.58-19.01
			c-1.589-0.323-3.123-0.487-4.562-0.487c-11.729,0-14.771,11-14.8,11.112c-0.23,1.152-0.57,4.735,0.845,6.466
			c0.57,0.698,1.411,1.038,2.57,1.038c2.146,0,3.093-1.886,4.461-4.963c1.525-3.429,3.423-7.696,8.762-7.696
			c4.008,0,7.872,4.679,9.396,11.378C217.214,78.844,221.415,112.347,160.672,141.608z" style="fill:#6E6E96;"></path>
		<g>
			<path d="M111.099,197.087c1.384-2.034,4.53-3.695,6.989-3.695h24.75c2.462,0,5.604,1.66,6.989,3.695
				l1.704,2.495c1.386,2.034,2.52,5.286,2.52,7.229c0,1.944-2.015,3.532-4.474,3.532h-38.229c-2.458,0-4.471-1.59-4.471-3.532
				c0-1.941,1.133-5.193,2.518-7.229L111.099,197.087z" style="fill:#CCCCDE;"></path>
			<path d="M149.577,211.843h-38.229c-3.292,0-5.971-2.258-5.971-5.032c0-2.237,1.22-5.783,2.777-8.072
				l1.706-2.497c1.659-2.438,5.273-4.35,8.228-4.35h24.75c2.953,0,6.567,1.911,8.229,4.352l1.702,2.493
				c1.561,2.289,2.781,5.836,2.781,8.074C155.551,209.585,152.871,211.843,149.577,211.843z M118.088,194.891
				c-1.961,0-4.648,1.42-5.749,3.039l-1.706,2.497c-1.201,1.766-2.256,4.749-2.256,6.383c0,1.083,1.388,2.032,2.971,2.032h38.229
				c1.584,0,2.974-0.949,2.974-2.032c0-1.634-1.056-4.617-2.259-6.384l-1.703-2.494c-1.104-1.621-3.791-3.041-5.751-3.041H118.088z" style="fill:#6E6E96;"></path>
		</g>
		<path d="M97.53,216.986c0,0,0-2.29,0-5.088c0-2.799,3.387-5.089,7.523-5.089h50.783
			c4.138,0,7.521,2.29,7.521,5.089c0,2.798,0,5.088,0,5.088" style="fill:#CCCCDE;"></path>
		<g>
			<path d="M193.096,38.111c0,3.274-3.039,5.954-6.751,5.954H72.911c-3.714,0-6.752-2.68-6.752-5.954
				c0-3.275,3.038-5.954,6.752-5.954h113.434C190.057,32.157,193.096,34.836,193.096,38.111z" style="fill:#EDB0B0;"></path>
		</g>
		<path d="M144.637,193.391c0-9.246-8.04-8.98-8.04-19.447c0-13.926,6.802-16.879,6.802-16.879
			c54.629-38.608,43.064-113,43.064-113H72.204c0,0-7.411,71.581,44.578,113c0,0,9.864,5.908,6.801,16.879
			c-2.815,10.082-8.041,10.201-8.041,19.447H144.637z" style="fill:#F7B8B8;"></path>
		<rect height="6.235" width="85.691" style="fill:#D9A1A1;" y="44.065" x="72.204"></rect>
		<path d="M143.431,157.079c54.595-38.658,42.966-113.039,42.966-113.039l-28.944,0.024
			c0,0,7.031,75.858-16.015,98.95c0,0-11.955,9.549-10.497,28.104c0,0,0.63,6.201,5.192,15.226c2.063,4.084,1.414,7.066,1.414,7.066
			l7.159-0.006c-0.01-9.248-8.05-8.973-8.06-19.44C136.635,160.04,143.431,157.079,143.431,157.079z" style="fill:#D9A1A1;"></path>
		<path d="M175.176,44.065c0,0,15.338,65.884-31.777,113c0,0,55.804-37.793,42.946-113H175.176z" style="fill:#CC9797;"></path>
		<path d="M115.675,134.699c-14.42-25.85-11.815-83.977-11.815-83.977
			H85.792c0.489,15.724,3.578,55.995,21.866,84.396c7.812,12.136,14.192,21.549,16.348,28.964c1.805,3.384,3.078,5.305,1.687,10.284
			c-2.814,10.081-9.728,10.198-9.728,19.446h7.729c0-8.404,5.064-12.273,5.064-26.199
			C128.757,158.19,115.675,134.699,115.675,134.699z" style="opacity:0.5;fill:#FFFFFF;enable-background:new    ;"></path>
		<g>
			<path d="M164.004,38.157c0,3.275-3.038,5.955-6.751,5.955H82.784c-3.714,0-6.751-2.679-6.751-5.955
				c0-3.275,3.038-5.955,6.751-5.955h74.469C160.966,32.203,164.004,34.882,164.004,38.157z" style="fill:#FCBBBB;"></path>
		</g>
		<path d="M123.693,195.501v11.31h-9.847
			c0,0-0.146-9.044,2.118-11.31H123.693z" style="opacity:0.56;fill:#FFFFFF;enable-background:new    ;"></path>
		<path d="M137.551,193.391v13.419h16.499
			C154.05,206.81,152.534,193.391,137.551,193.391z" style="opacity:0.15;fill:#6E6E96;enable-background:new    ;"></path>
		<rect height="9.272" width="17.735" style="opacity:0.66;fill:#FFFFFF;enable-background:new    ;" y="207.714" x="105.957"></rect>
		<polygon points="164.486,212.767 161.954,216.986 142.261,216.986 
			142.261,206.81 156.607,206.81 160.101,208.663" style="opacity:0.15;fill:#6E6E96;enable-background:new    ;"></polygon>
		<path d="M164.859,218.486H96.031v-6.588c0-3.633,4.048-6.589,9.023-6.589h50.783
			c4.975,0,9.021,2.956,9.021,6.589V218.486z M99.031,215.486h62.828v-3.588c0-1.912-2.813-3.589-6.021-3.589h-50.783
			c-3.209,0-6.023,1.677-6.023,3.589V215.486z" style="fill:#6E6E96;"></path>
		<path d="M146.137,194.891h-32.095v-1.5c0-5.588,1.834-8.245,3.776-11.058c1.54-2.23,3.131-4.536,4.32-8.793
			c2.724-9.756-6.038-15.136-6.126-15.188l-0.164-0.114c-27.209-21.677-38.033-51.613-42.321-72.909
			c-4.637-23.03-2.833-41.237-2.815-41.418l0.14-1.346h116.896l0.197,1.27c0.029,0.188,2.883,19.108-1.05,42.501
			c-3.64,21.653-13.99,51.713-42.632,71.954l-0.268,0.151c-0.224,0.104-5.899,2.898-5.899,15.503c0,4.85,1.873,7.079,3.855,9.439
			c1.961,2.335,4.185,4.981,4.185,10.008V194.891z M117.094,191.891h25.957c-0.358-2.962-1.782-4.657-3.396-6.578
			c-2.137-2.544-4.559-5.427-4.559-11.369c0-13.685,6.369-17.576,7.533-18.173c27.695-19.624,37.741-48.805,41.292-69.841
			c3.291-19.497,1.771-35.804,1.226-40.365H73.593c-0.648,9.981-2.713,72.953,44.063,110.278c1.101,0.712,10.528,7.202,7.372,18.504
			c-1.324,4.741-3.139,7.37-4.741,9.69C118.619,186.454,117.361,188.276,117.094,191.891z" style="fill:#6E6E96;"></path>
		<rect height="9.283" width="17.724" style="opacity:0.62;fill:#FFFFFF;enable-background:new    ;" y="33.001" x="85.292"></rect>
		<rect height="10.127" width="8.438" style="opacity:0.34;fill:#FFFFFF;enable-background:new    ;" y="32.157" x="111.456"></rect>
		<path d="M118.348,50.301c0,0-2.263,52.387,3.376,74.131
			c6.024,23.232,6.783,40.604,6.783,40.604s-7.148-29.251-11.847-43.419c-7.021-21.169-5.063-71.316-5.063-71.316H118.348z" style="opacity:0.44;fill:#D9A1A1;enable-background:new    ;"></path>
		<path d="M170.111,218.486H92.442c-0.829,0-1.5-0.672-1.5-1.5s0.671-1.5,1.5-1.5h77.669
			c0.828,0,1.5,0.672,1.5,1.5S170.939,218.486,170.111,218.486z" style="fill:#6E6E96;"></path>
		<path d="M149.294,50.301c0,0,10.165,63.479-9.828,94.686c0,0,25.344-23.093,18.43-94.688L149.294,50.301z" style="fill:#F7C6C6;"></path>
		<rect height="11.487" width="8.44" style="fill:#F7C6C6;" y="32.578" x="149.011"></rect>
		<polygon points="119.612,117.89 119.612,142.153 128.403,133.36 136.774,141.733 136.774,117.534" style="fill:#D9A1A1;"></polygon>
		<circle r="24.199" cy="95.448" cx="127.954" style="fill:#D9A1A1;"></circle>
		<g>
			<g>
				<polyline points="120.262,106.046 120.344,134.142 128.757,125.643 137.254,134.054 137.172,105.961" style="fill:#FF9999;"></polyline>
				<path d="M120.344,135.642c-0.191,0-0.384-0.036-0.568-0.112c-0.562-0.229-0.93-0.776-0.932-1.384
					l-0.082-28.096c-0.002-0.829,0.667-1.502,1.496-1.504c0.001,0,0.003,0,0.004,0c0.827,0,1.498,0.668,1.5,1.496l0.071,24.464
					l5.858-5.917c0.583-0.589,1.532-0.594,2.122-0.011l5.931,5.872l-0.071-24.484c-0.002-0.829,0.667-1.502,1.496-1.504
					c0.001,0,0.003,0,0.004,0c0.826,0,1.498,0.668,1.5,1.496l0.082,28.094c0.002,0.605-0.361,1.153-0.921,1.388
					c-0.557,0.232-1.203,0.108-1.635-0.317l-7.431-7.356l-7.358,7.434C121.123,135.488,120.737,135.642,120.344,135.642z" style="fill:#6E6E96;"></path>
			</g>
			<path d="M151.574,89.174c0,12.808-10.384,23.188-23.19,23.188c-12.806,0-23.19-10.381-23.19-23.188
				s10.385-23.188,23.19-23.188C141.191,65.984,151.574,76.366,151.574,89.174z" style="fill:#FFD28F;"></path>
			<path d="M108.969,90.381c0-11.318,9.176-20.494,20.493-20.494
				c4.956,0,10.584,1.761,14.128,4.69c-3.759-4.551-10.525-7.45-16.887-7.45c-11.317,0-20.493,9.173-20.493,20.493
				c0,6.36,2.897,12.767,7.447,16.523C110.729,100.602,108.969,95.337,108.969,90.381z" style="opacity:0.75;fill:#FFFFFF;enable-background:new    ;"></path>
			<g style="opacity:0.76;">
				<path d="M132.901,66.427c8.902,2.517,15.431,10.696,15.431,20.405c0,11.712-9.495,21.206-21.209,21.206
					c-11.711,0-21.208-9.495-21.208-21.206c0-2.202,0.335-4.324,0.958-6.32c-1.079,2.678-1.68,5.6-1.68,8.661
					c0,12.808,10.385,23.188,23.19,23.188c12.808,0,23.19-10.381,23.19-23.188C151.574,77.912,143.547,68.53,132.901,66.427z" style="fill:#E8B76D;"></path>
			</g>
			<path d="M121.856,91.69c0-4.102,3.42-7.425,7.64-7.425
				c1.639,0,3.149,0.503,4.396,1.355c-1.291-2.323-3.817-3.9-6.725-3.9c-4.22,0-7.64,3.325-7.64,7.424
				c0,2.51,1.282,4.726,3.242,6.07C122.188,94.166,121.856,92.966,121.856,91.69z" style="opacity:0.15;fill:#8B5C29;enable-background:new    ;"></path>
			<g>
				<path d="M127.465,97.067c-4.204,0-7.625-3.419-7.625-7.624c0-2.036,0.793-3.952,2.233-5.392
					c1.438-1.438,3.354-2.232,5.391-2.232c2.036,0,3.952,0.793,5.389,2.232c1.443,1.439,2.234,3.355,2.234,5.392l0,0
					c0,0.996,0.805,1.802,1.803,1.802c0.994,0,1.8-0.807,1.8-1.802l0,0c0-2.999-1.168-5.818-3.286-7.939
					c-2.122-2.121-4.939-3.289-7.939-3.289s-5.82,1.168-7.939,3.289c-2.121,2.121-3.289,4.941-3.289,7.939
					c0,6.191,5.036,11.227,11.229,11.227l0,0c0.995,0,1.802-0.805,1.802-1.802C129.267,97.874,128.459,97.067,127.465,97.067
					L127.465,97.067z" style="fill:#6E6E96;"></path>
			</g>
			<path d="M132.848,104.119c-0.677,0-1.29-0.461-1.457-1.147
				c-0.195-0.805,0.3-1.616,1.104-1.811c5.14-1.245,7.505-7.047,7.528-7.106c0.308-0.771,1.18-1.142,1.949-0.838
				c0.77,0.307,1.145,1.179,0.838,1.949c-0.118,0.297-2.979,7.305-9.608,8.912C133.083,104.105,132.964,104.119,132.848,104.119z" style="opacity:0.73;fill:#FFFFFF;enable-background:new    ;"></path>
			<g style="opacity:0.2;">
				<path d="M119.62,113.866c0.337,0.172,8.371,4.188,18.152,0.045l-1.146-2.708
					c-8.532,3.612-15.595,0.081-15.666,0.046L119.62,113.866z" style="fill:#6E6E96;"></path>
			</g>
			<path d="M128.384,113.862c-13.614,0-24.69-11.075-24.69-24.688s11.076-24.688,24.69-24.688
				c0,0,0.001,0,0.002,0c6.594,0,12.793,2.567,17.456,7.23c4.664,4.663,7.232,10.863,7.232,17.458
				C153.074,102.787,141.998,113.862,128.384,113.862z M128.386,67.485c-0.001,0-0.001,0-0.002,0c-11.96,0-21.69,9.729-21.69,21.688
				s9.73,21.688,21.69,21.688s21.69-9.729,21.69-21.688c0-5.793-2.256-11.24-6.354-15.337
				C139.624,69.741,134.178,67.485,128.386,67.485z" style="fill:#6E6E96;"></path>
		</g>
		<path d="M90.209,50.723c0,0,1.1,57.874,15.855,81.826c0,0-17.675-25.231-20.273-81.826H90.209z" style="fill:#FFFFFF;"></path>
		<rect height="9.283" width="3.664" style="fill:#FFFFFF;" y="33.001" x="85.292"></rect>
		<g>
			<path d="M186.345,45.565H72.911c-4.55,0-8.252-3.344-8.252-7.454s3.702-7.454,8.252-7.454h113.434
				c4.55,0,8.251,3.344,8.251,7.454S190.895,45.565,186.345,45.565z M72.911,33.657c-2.896,0-5.252,1.998-5.252,4.454
				s2.356,4.454,5.252,4.454h113.434c2.896,0,5.251-1.998,5.251-4.454s-2.355-4.454-5.251-4.454H72.911z" style="fill:#6E6E96;"></path>
		</g>
	</g>
	<g>
		<path d="M229.961,152.422c0-0.082,0.007-0.162,0.007-0.244c0-8.568-7.56-15.518-16.889-15.518
			c-8.026,0-14.744,5.151-16.457,12.051c-0.266-0.019-0.53-0.032-0.799-0.032c-5.55,0-10.047,4.135-10.047,9.231
			c0,1.092,0.21,2.141,0.59,3.113c-1.558,2.021-2.476,4.492-2.476,7.155c0,6.759,5.881,12.25,13.196,12.396v0.007h25.946
			c8.894,0,16.104-6.626,16.104-14.801C239.138,159.889,235.387,154.802,229.961,152.422z" style="fill:#FFFFFF;"></path>
		<path d="M223.033,182.082h-25.946c-0.062,0-0.122-0.004-0.182-0.011
			c-8.018-0.236-14.515-6.439-14.515-13.893c0-2.646,0.794-5.189,2.305-7.405c-0.278-0.932-0.419-1.892-0.419-2.863
			c0-5.817,5.007-10.569,11.226-10.728c2.346-7.137,9.397-12.022,17.577-12.022c9.882,0,17.969,7.252,18.373,16.307
			c5.611,2.837,9.186,8.357,9.185,14.314C240.637,174.769,232.74,182.082,223.033,182.082z M197.231,179.082h25.803
			c8.053,0,14.604-5.967,14.604-13.301c0.001-5.075-3.249-9.779-8.278-11.985c-0.545-0.239-0.897-0.778-0.897-1.374l0.005-0.186
			c0.002-7.788-6.901-14.076-15.387-14.076c-7.122,0-13.432,4.589-15.001,10.912c-0.176,0.708-0.837,1.203-1.561,1.135
			c-0.23-0.016-0.461-0.028-0.694-0.028c-4.713,0-8.547,3.469-8.547,7.731c0,0.876,0.164,1.74,0.487,2.567
			c0.191,0.49,0.111,1.045-0.21,1.462c-1.415,1.836-2.163,3.993-2.163,6.239c0,5.879,5.261,10.768,11.727,10.896
			C197.156,179.076,197.194,179.078,197.231,179.082z" style="fill:#CCCCDE;"></path>
	</g>
	<g>
		<path d="M76.796,178.802c0-0.066,0.006-0.133,0.006-0.199c0-7.004-6.179-12.684-13.804-12.684
			c-6.561,0-12.052,4.21-13.451,9.851c-0.216-0.017-0.434-0.026-0.653-0.026c-4.535,0-8.21,3.379-8.21,7.545
			c0,0.894,0.171,1.75,0.481,2.545c-1.272,1.652-2.022,3.671-2.022,5.85c0,5.522,4.808,10.013,10.786,10.132v0.006h21.207
			c7.269,0,13.162-5.416,13.162-12.097C84.296,184.905,81.23,180.747,76.796,178.802z" style="fill:#FFFFFF;"></path>
		<path d="M71.136,203.321H49.929c-0.058,0-0.115-0.003-0.172-0.01c-6.693-0.204-12.114-5.393-12.114-11.628
			c0-2.175,0.64-4.268,1.858-6.101c-0.21-0.747-0.317-1.516-0.317-2.294c0-4.844,4.108-8.81,9.249-9.035
			c2.012-5.847,7.829-9.834,14.566-9.834c8.166,0,14.859,5.959,15.282,13.431c4.595,2.385,7.516,6.949,7.518,11.873
			C85.798,197.221,79.22,203.321,71.136,203.321z M50.062,200.321h21.074c6.431,0,11.662-4.754,11.662-10.597
			c-0.001-4.041-2.594-7.789-6.604-9.548c-0.545-0.239-0.897-0.778-0.897-1.374c0-0.022,0.003-0.144,0.004-0.166
			c0.001-6.2-5.518-11.217-12.302-11.217c-5.698,0-10.743,3.664-11.995,8.712c-0.177,0.711-0.839,1.206-1.571,1.134
			c-0.178-0.014-0.357-0.021-0.538-0.021c-3.7,0-6.71,2.712-6.71,6.045c0,0.684,0.127,1.356,0.378,1.999
			c0.191,0.49,0.112,1.044-0.208,1.461c-1.119,1.453-1.711,3.16-1.711,4.935c0,4.657,4.179,8.529,9.316,8.632
			C49.993,200.316,50.028,200.318,50.062,200.321z" style="fill:#CCCCDE;"></path>
	</g>
</g>
</svg>
